<svg width="200" height="200" viewBox="0 0 200 200" fill="none" xmlns="http://www.w3.org/2000/svg">
<path fill-rule="evenodd" clip-rule="evenodd" d="M200 0H0V200H200V0ZM83.5136 16.0721C93.0132 7.976 106.987 7.97592 116.487 16.0722L127.908 25.8053C129.265 26.9617 130.952 27.6605 132.729 27.8023L147.688 28.996C160.13 29.9889 170.011 39.8696 171.004 52.3119L172.198 67.2704C172.339 69.0476 173.038 70.7348 174.194 72.0919L183.928 83.5137C192.024 93.0133 192.024 106.987 183.928 116.487L174.194 127.908C173.038 129.265 172.339 130.953 172.197 132.73L171.004 147.688C170.01 160.131 160.13 170.011 147.688 171.004L132.729 172.197C130.952 172.34 129.265 173.039 127.908 174.195L116.487 183.928C106.987 192.024 93.0132 192.024 83.5127 183.928L72.0916 174.195C70.7346 173.039 69.0476 172.34 67.2704 172.198L52.3122 171.004C39.8696 170.01 29.9892 160.13 28.9962 147.688L27.8023 132.73C27.6605 130.953 26.9616 129.266 25.8053 127.908L16.0722 116.486C7.97602 106.987 7.97593 93.0142 16.072 83.5137L25.8052 72.0923C26.9616 70.7353 27.6607 69.0476 27.8024 67.2703L28.9961 52.3118C29.989 39.8694 39.8693 29.989 52.3118 28.9961L67.2703 27.8024C69.0476 27.6605 70.7349 26.9617 72.092 25.8053L83.5136 16.0721ZM135.945 76.0364L123.963 64.0541L64.0508 123.965L76.0331 135.948L135.945 76.0364ZM67.0464 85.0227C72.0096 89.986 80.0565 89.986 85.02 85.0227C89.9834 80.0602 89.9834 72.0129 85.02 67.0496C80.0565 62.0864 72.0096 62.0864 67.0464 67.0496C62.0831 72.0129 62.0831 80.0602 67.0464 85.0227ZM114.975 114.979C110.012 119.942 110.012 127.989 114.975 132.952C119.939 137.916 127.985 137.916 132.949 132.952C137.912 127.989 137.912 119.942 132.949 114.979C127.985 110.016 119.939 110.016 114.975 114.979Z" fill="black"/>
</svg>
