<svg id="ly47peu499530713" viewBox="0 0 200 200" xmlns="http://www.w3.org/2000/svg" xmlns:xlink="http://www.w3.org/1999/xlink"><g id="ly47peu499530713_translate"><g transform="matrix(1,0,0,1,0,0)"><g id="ly47peu499530713" opacity="1" style="mix-blend-mode:normal"><g><defs><clipPath id="ly47peu499530713_clipPath" x="-50%" y="-50%" width="200%" height="200%"><path d="M0.01,0h199.98c0.00552,0 0.01,0.00448 0.01,0.01v199.98c0,0.00552 -0.00448,0.01 -0.01,0.01h-199.98c-0.00552,0 -0.01,-0.00448 -0.01,-0.01v-199.98c0,-0.00552 0.00448,-0.01 0.01,-0.01z" fill="white" clip-rule="nonzero"></path></clipPath></defs><g clip-path="url(#ly47peu499530713_clipPath)"><path id="ly47peu499530713_fill_path" d="M0.01,0h199.98c0.00552,0 0.01,0.00448 0.01,0.01v199.98c0,0.00552 -0.00448,0.01 -0.01,0.01h-199.98c-0.00552,0 -0.01,-0.00448 -0.01,-0.01v-199.98c0,-0.00552 0.00448,-0.01 0.01,-0.01z" fill-rule="nonzero" fill="rgb(0, 0, 0)" fill-opacity="1" style="mix-blend-mode:normal"></path><g id="ly47peu704357755_translate"><g transform="matrix(1,0,0,1,0,0)"><g id="ly47peu704357755" opacity="1" style="mix-blend-mode:normal"><g><g><path id="ly47peu704357755_fill_path" d="M0,19.52572c0,0 57.22188,-19.52572 150.16667,-19.52572c92.94478,0 124.66666,22.97143 257.83333,22.97143c133.16666,0 187.00002,-17.5838 325.83335,-17.5838c138.83333,0 218.16666,14.13809 218.16666,14.13809v181.47428h-952z" fill-rule="nonzero" fill="rgb(217, 217, 217)" fill-opacity="1" style="mix-blend-mode:normal"></path><g style="mix-blend-mode:normal"><defs><linearGradient id="ly47peu704357755pf1" x1="0" y1="0.5" x2="1" y2="0.5" gradientTransform="matrix(0.7127873316804101,-0.7161510273719967,1.8910778165182531,1.8822037853441327,-0.8053031630446063,-0.08469305499853652)" gradientUnits="objectBoundingBox"><stop offset="0%" stop-opacity="1" stop-color="rgb(158, 0, 255)"></stop><stop offset="49%" stop-opacity="1" stop-color="rgb(108, 73, 255)"></stop><stop offset="100%" stop-opacity="1" stop-color="rgb(0, 123, 213)"></stop></linearGradient></defs><path id="ly47peu704357755_fill_path" d="M0,19.52572c0,0 57.22188,-19.52572 150.16667,-19.52572c92.94478,0 124.66666,22.97143 257.83333,22.97143c133.16666,0 187.00002,-17.5838 325.83335,-17.5838c138.83333,0 218.16666,14.13809 218.16666,14.13809v181.47428h-952z" fill-rule="nonzero" fill="url(#ly47peu704357755pf1)"></path></g></g></g></g></g></g></g></g></g></g></g><animateTransform href="#ly47peu704357755_translate" attributeName="transform" type="translate" values="0 0;-660 0" dur="2s" repeatCount="indefinite" calcMode="spline" keyTimes="0;1" keySplines="0.5 0.35 0.15 1" additive="sum" fill="freeze"></animateTransform></svg>